<svg xmlns="http://www.w3.org/2000/svg" xmlns:xlink="http://www.w3.org/1999/xlink" width="712" height="284pt" viewBox="0 0 534 284"><g id="graph0" class="graph" transform="scale(1 1) rotate(0) translate(4 280)"><title>dependencies</title><polygon fill="#fff" stroke="transparent" points="-4 4 -4 -280 530 -280 530 4 -4 4"/><text x="242.009" y="-42.4" fill="#000" font-family="sans-serif" font-size="14" font-weight="bold" text-anchor="start">Legend</text><polygon fill="#ffffb3" stroke="transparent" points="29 -10 29 -30 49 -30 49 -10 29 -10"/><text x="52.629" y="-15.4" fill="#000" font-family="sans-serif" font-size="14" text-anchor="start">Declarations</text><polygon fill="#8dd3c7" stroke="transparent" points="142 -10 142 -30 162 -30 162 -10 142 -10"/><text x="165.725" y="-15.4" fill="#000" font-family="sans-serif" font-size="14" text-anchor="start">Module</text><polygon fill="#80b1d3" stroke="transparent" points="228 -10 228 -30 248 -30 248 -10 228 -10"/><text x="251.781" y="-15.4" fill="#000" font-family="sans-serif" font-size="14" text-anchor="start">Bootstrap</text><polygon fill="#fdb462" stroke="transparent" points="325 -10 325 -30 345 -30 345 -10 325 -10"/><text x="348.673" y="-15.4" fill="#000" font-family="sans-serif" font-size="14" text-anchor="start">Providers</text><polygon fill="#fb8072" stroke="transparent" points="421 -10 421 -30 441 -30 441 -10 421 -10"/><text x="444.726" y="-15.4" fill="#000" font-family="sans-serif" font-size="14" text-anchor="start">Exports</text><g id="clust1" class="cluster"><title>cluster_GooglePlaceModule</title><polygon fill="none" stroke="#000" stroke-dasharray="1 5" points="8 -70 8 -268 518 -268 518 -70 8 -70"/></g><g id="clust2" class="cluster"><title>cluster_GooglePlaceModule_declarations</title><polygon fill="none" stroke="#000" points="354 -78 354 -130 510 -130 510 -78 354 -78"/></g><g id="clust4" class="cluster"><title>cluster_GooglePlaceModule_imports</title><polygon fill="none" stroke="#000" points="218 -78 218 -130 346 -130 346 -78 218 -78"/></g><g id="clust5" class="cluster"><title>cluster_GooglePlaceModule_exports</title><polygon fill="none" stroke="#000" points="129 -208 129 -260 422 -260 422 -208 129 -208"/></g><g id="clust7" class="cluster"><title>cluster_GooglePlaceModule_providers</title><polygon fill="none" stroke="#000" points="16 -78 16 -130 210 -130 210 -78 16 -78"/></g><g id="node1" class="node"><title>GooglePlaceDirective</title><polygon fill="#ffffb3" stroke="#000" points="501.612 -122 362.388 -122 362.388 -86 501.612 -86 501.612 -122"/><text x="432" y="-99.8" fill="#000" font-family="Times,serif" font-size="14" text-anchor="middle">GooglePlaceDirective</text></g><g id="node2" class="node"><title>GooglePlaceModule</title><polygon fill="#8dd3c7" stroke="#000" points="347.579 -187 344.579 -191 323.579 -191 320.579 -187 216.421 -187 216.421 -151 347.579 -151 347.579 -187"/><text x="282" y="-164.8" fill="#000" font-family="Times,serif" font-size="14" text-anchor="middle">GooglePlaceModule</text></g><g id="edge1" class="edge"><title>GooglePlaceDirective-&gt;GooglePlaceModule</title><path fill="none" stroke="#000" d="M362.0662,-104C350.7667,-104 342.6866,-104 342.6866,-104 342.6866,-104 342.6866,-140.8939 342.6866,-140.8939"/><polygon fill="#000" stroke="#000" points="339.187 -140.894 342.687 -150.894 346.187 -140.894 339.187 -140.894"/></g><g id="node4" class="node"><title>CommonModule</title><polygon fill="#fb8072" stroke="#000" points="413.668 -252 298.332 -252 298.332 -216 413.668 -216 413.668 -252"/><text x="356" y="-229.8" fill="#000" font-family="Times,serif" font-size="14" text-anchor="middle">CommonModule</text></g><g id="edge3" class="edge"><title>GooglePlaceModule-&gt;CommonModule</title><path fill="none" stroke="#000" stroke-dasharray="5 2" d="M322.9778,-187.1061C322.9778,-187.1061 322.9778,-205.991 322.9778,-205.991"/><polygon fill="#000" stroke="#000" points="319.478 -205.991 322.978 -215.991 326.478 -205.991 319.478 -205.991"/></g><g id="node5" class="node"><title>GooglePlaceDirective</title><polygon fill="#fb8072" stroke="#000" points="280.612 -252 137.388 -252 137.388 -216 280.612 -216 280.612 -252"/><text x="209" y="-229.8" fill="#000" font-family="Times,serif" font-size="14" text-anchor="middle">GooglePlaceDirective</text></g><g id="edge4" class="edge"><title>GooglePlaceModule-&gt;GooglePlaceDirective</title><path fill="none" stroke="#000" stroke-dasharray="5 2" d="M248.5082,-187.1061C248.5082,-187.1061 248.5082,-205.991 248.5082,-205.991"/><polygon fill="#000" stroke="#000" points="245.008 -205.991 248.508 -215.991 252.008 -205.991 245.008 -205.991"/></g><g id="node3" class="node"><title>CommonModule</title><polygon fill="#8dd3c7" stroke="#000" points="337.668 -122 334.668 -126 313.668 -126 310.668 -122 226.332 -122 226.332 -86 337.668 -86 337.668 -122"/><text x="282" y="-99.8" fill="#000" font-family="Times,serif" font-size="14" text-anchor="middle">CommonModule</text></g><g id="edge2" class="edge"><title>CommonModule-&gt;GooglePlaceModule</title><path fill="none" stroke="#000" d="M282,-122.1061C282,-122.1061 282,-140.991 282,-140.991"/><polygon fill="#000" stroke="#000" points="278.5 -140.991 282 -150.991 285.5 -140.991 278.5 -140.991"/></g><g id="node6" class="node"><title>GooglePlaceService</title><ellipse cx="113" cy="-104" fill="#fdb462" stroke="#000" rx="89.163" ry="18"/><text x="113" y="-99.8" fill="#000" font-family="Times,serif" font-size="14" text-anchor="middle">GooglePlaceService</text></g><g id="edge5" class="edge"><title>GooglePlaceService-&gt;GooglePlaceModule</title><path fill="none" stroke="#000" d="M202.4467,-104C213.6712,-104 221.3135,-104 221.3135,-104 221.3135,-104 221.3135,-140.8939 221.3135,-140.8939"/><polygon fill="#000" stroke="#000" points="217.814 -140.894 221.314 -150.894 224.814 -140.894 217.814 -140.894"/></g></g></svg>