<svg xmlns="http://www.w3.org/2000/svg" xmlns:xlink="http://www.w3.org/1999/xlink" width="1013pt" height="480" viewBox="0 0 1013 360"><g id="graph0" class="graph" transform="scale(1 1) rotate(0) translate(4 356)"><title>dependencies</title><polygon fill="#fff" stroke="transparent" points="-4 4 -4 -356 1009 -356 1009 4 -4 4"/><text x="481.509" y="-42.4" fill="#000" font-family="sans-serif" font-size="14" font-weight="bold" text-anchor="start">Legend</text><polygon fill="#ffffb3" stroke="transparent" points="268.5 -10 268.5 -30 288.5 -30 288.5 -10 268.5 -10"/><text x="292.129" y="-15.4" fill="#000" font-family="sans-serif" font-size="14" text-anchor="start">Declarations</text><polygon fill="#8dd3c7" stroke="transparent" points="381.5 -10 381.5 -30 401.5 -30 401.5 -10 381.5 -10"/><text x="405.225" y="-15.4" fill="#000" font-family="sans-serif" font-size="14" text-anchor="start">Module</text><polygon fill="#80b1d3" stroke="transparent" points="467.5 -10 467.5 -30 487.5 -30 487.5 -10 467.5 -10"/><text x="491.281" y="-15.4" fill="#000" font-family="sans-serif" font-size="14" text-anchor="start">Bootstrap</text><polygon fill="#fdb462" stroke="transparent" points="564.5 -10 564.5 -30 584.5 -30 584.5 -10 564.5 -10"/><text x="588.173" y="-15.4" fill="#000" font-family="sans-serif" font-size="14" text-anchor="start">Providers</text><polygon fill="#fb8072" stroke="transparent" points="660.5 -10 660.5 -30 680.5 -30 680.5 -10 660.5 -10"/><text x="684.226" y="-15.4" fill="#000" font-family="sans-serif" font-size="14" text-anchor="start">Exports</text><g id="clust1" class="cluster"><title>cluster_AppModule</title><polygon fill="none" stroke="#000" stroke-dasharray="1 5" points="363 -146 363 -344 997 -344 997 -146 363 -146"/></g><g id="clust2" class="cluster"><title>cluster_AppModule_declarations</title><polygon fill="none" stroke="#000" points="867 -154 867 -206 989 -206 989 -154 867 -154"/></g><g id="clust4" class="cluster"><title>cluster_AppModule_imports</title><polygon fill="none" stroke="#000" points="371 -154 371 -206 859 -206 859 -154 371 -154"/></g><g id="clust6" class="cluster"><title>cluster_AppModule_bootstrap</title><polygon fill="none" stroke="#000" points="617 -284 617 -336 741 -336 741 -284 617 -284"/></g><g id="clust8" class="cluster"><title>cluster_GooglePlaceModule</title><polygon fill="none" stroke="#000" stroke-dasharray="1 5" points="8 -70 8 -138 819 -138 819 -70 8 -70"/></g><g id="clust9" class="cluster"><title>cluster_GooglePlaceModule_declarations</title><polygon fill="none" stroke="#000" points="655 -78 655 -130 811 -130 811 -78 655 -78"/></g><g id="clust11" class="cluster"><title>cluster_GooglePlaceModule_imports</title><polygon fill="none" stroke="#000" points="519 -78 519 -130 647 -130 647 -78 519 -78"/></g><g id="clust12" class="cluster"><title>cluster_GooglePlaceModule_exports</title><polygon fill="none" stroke="#000" points="218 -78 218 -130 511 -130 511 -78 218 -78"/></g><g id="clust14" class="cluster"><title>cluster_GooglePlaceModule_providers</title><polygon fill="none" stroke="#000" points="16 -78 16 -130 210 -130 210 -78 16 -78"/></g><g id="node1" class="node"><title>AppComponent</title><polygon fill="#ffffb3" stroke="#000" points="980.94 -198 875.06 -198 875.06 -162 980.94 -162 980.94 -198"/><text x="928" y="-175.8" fill="#000" font-family="Times,serif" font-size="14" text-anchor="middle">AppComponent</text></g><g id="node2" class="node"><title>AppModule</title><polygon fill="#8dd3c7" stroke="#000" points="720.657 -263 717.657 -267 696.657 -267 693.657 -263 637.343 -263 637.343 -227 720.657 -227 720.657 -263"/><text x="679" y="-240.8" fill="#000" font-family="Times,serif" font-size="14" text-anchor="middle">AppModule</text></g><g id="edge1" class="edge"><title>AppComponent-&gt;AppModule</title><path fill="none" stroke="#000" d="M928,-198.2843C928,-219.3211 928,-251 928,-251 928,-251 730.677,-251 730.677,-251"/><polygon fill="#000" stroke="#000" points="730.677 -247.5 720.677 -251 730.677 -254.5 730.677 -247.5"/></g><g id="node7" class="node"><title>AppComponent</title><polygon fill="#80b1d3" stroke="#000" points="733.439 -328 624.561 -328 624.561 -292 733.439 -292 733.439 -328"/><text x="679" y="-305.8" fill="#000" font-family="Times,serif" font-size="14" text-anchor="middle">AppComponent</text></g><g id="edge6" class="edge"><title>AppModule-&gt;AppComponent</title><path fill="none" stroke="#000" stroke-dasharray="1 5" d="M679,-263.1061C679,-263.1061 679,-281.991 679,-281.991"/><polygon fill="#000" stroke="#000" points="675.5 -281.991 679 -291.991 682.5 -281.991 675.5 -281.991"/></g><g id="node3" class="node"><title>BrowserModule</title><polygon fill="#8dd3c7" stroke="#000" points="851.473 -198 848.473 -202 827.473 -202 824.473 -198 744.527 -198 744.527 -162 851.473 -162 851.473 -198"/><text x="798" y="-175.8" fill="#000" font-family="Times,serif" font-size="14" text-anchor="middle">BrowserModule</text></g><g id="edge2" class="edge"><title>BrowserModule-&gt;AppModule</title><path fill="none" stroke="#000" d="M798,-198.0225C798,-215.3734 798,-239 798,-239 798,-239 730.9549,-239 730.9549,-239"/><polygon fill="#000" stroke="#000" points="730.955 -235.5 720.955 -239 730.955 -242.5 730.955 -235.5"/></g><g id="node4" class="node"><title>FormsModule</title><polygon fill="#8dd3c7" stroke="#000" points="726.829 -198 723.829 -202 702.829 -202 699.829 -198 631.171 -198 631.171 -162 726.829 -162 726.829 -198"/><text x="679" y="-175.8" fill="#000" font-family="Times,serif" font-size="14" text-anchor="middle">FormsModule</text></g><g id="edge3" class="edge"><title>FormsModule-&gt;AppModule</title><path fill="none" stroke="#000" d="M679,-198.1061C679,-198.1061 679,-216.991 679,-216.991"/><polygon fill="#000" stroke="#000" points="675.5 -216.991 679 -226.991 682.5 -216.991 675.5 -216.991"/></g><g id="node5" class="node"><title>HttpModule</title><polygon fill="#8dd3c7" stroke="#000" points="613.439 -198 610.439 -202 589.439 -202 586.439 -198 528.561 -198 528.561 -162 613.439 -162 613.439 -198"/><text x="571" y="-175.8" fill="#000" font-family="Times,serif" font-size="14" text-anchor="middle">HttpModule</text></g><g id="edge4" class="edge"><title>HttpModule-&gt;AppModule</title><path fill="none" stroke="#000" d="M571,-198.0225C571,-215.3734 571,-239 571,-239 571,-239 627.2444,-239 627.2444,-239"/><polygon fill="#000" stroke="#000" points="627.244 -242.5 637.244 -239 627.244 -235.5 627.244 -242.5"/></g><g id="node6" class="node"><title>GooglePlaceModule</title><polygon fill="#8dd3c7" stroke="#000" points="510.579 -198 507.579 -202 486.579 -202 483.579 -198 379.421 -198 379.421 -162 510.579 -162 510.579 -198"/><text x="445" y="-175.8" fill="#000" font-family="Times,serif" font-size="14" text-anchor="middle">GooglePlaceModule</text></g><g id="edge5" class="edge"><title>GooglePlaceModule-&gt;AppModule</title><path fill="none" stroke="#000" d="M445,-198.2843C445,-219.3211 445,-251 445,-251 445,-251 627.1655,-251 627.1655,-251"/><polygon fill="#000" stroke="#000" points="627.165 -254.5 637.165 -251 627.165 -247.5 627.165 -254.5"/></g><g id="node10" class="node"><title>CommonModule</title><polygon fill="#fb8072" stroke="#000" points="502.668 -122 387.332 -122 387.332 -86 502.668 -86 502.668 -122"/><text x="445" y="-99.8" fill="#000" font-family="Times,serif" font-size="14" text-anchor="middle">CommonModule</text></g><g id="edge9" class="edge"><title>GooglePlaceModule-&gt;CommonModule</title><path fill="none" stroke="#000" stroke-dasharray="5 2" d="M445,-161.9891C445,-161.9891 445,-132.145 445,-132.145"/><polygon fill="#000" stroke="#000" points="448.5 -132.145 445 -122.145 441.5 -132.145 448.5 -132.145"/></g><g id="node11" class="node"><title>GooglePlaceDirective</title><polygon fill="#fb8072" stroke="#000" points="369.612 -122 226.388 -122 226.388 -86 369.612 -86 369.612 -122"/><text x="298" y="-99.8" fill="#000" font-family="Times,serif" font-size="14" text-anchor="middle">GooglePlaceDirective</text></g><g id="edge10" class="edge"><title>GooglePlaceModule-&gt;GooglePlaceDirective</title><path fill="none" stroke="#000" stroke-dasharray="5 2" d="M383.4385,-161.9891C383.4385,-139.5148 383.4385,-104 383.4385,-104 383.4385,-104 379.7113,-104 379.7113,-104"/><polygon fill="#000" stroke="#000" points="379.711 -100.5 369.711 -104 379.711 -107.5 379.711 -100.5"/></g><g id="node8" class="node"><title>GooglePlaceDirective</title><polygon fill="#ffffb3" stroke="#000" points="802.612 -122 663.388 -122 663.388 -86 802.612 -86 802.612 -122"/><text x="733" y="-99.8" fill="#000" font-family="Times,serif" font-size="14" text-anchor="middle">GooglePlaceDirective</text></g><g id="edge7" class="edge"><title>GooglePlaceDirective-&gt;GooglePlaceModule</title><path fill="none" stroke="#000" d="M694.9292,-122.1097C694.9292,-131.897 694.9292,-142 694.9292,-142 694.9292,-142 507.8875,-142 507.8875,-142 507.8875,-142 507.8875,-151.8903 507.8875,-151.8903"/><polygon fill="#000" stroke="#000" points="504.388 -151.89 507.887 -161.89 511.388 -151.89 504.388 -151.89"/></g><g id="node9" class="node"><title>CommonModule</title><polygon fill="#8dd3c7" stroke="#000" points="638.668 -122 635.668 -126 614.668 -126 611.668 -122 527.332 -122 527.332 -86 638.668 -86 638.668 -122"/><text x="583" y="-99.8" fill="#000" font-family="Times,serif" font-size="14" text-anchor="middle">CommonModule</text></g><g id="edge8" class="edge"><title>CommonModule-&gt;GooglePlaceModule</title><path fill="none" stroke="#000" d="M527.3118,-104C514.847,-104 505.2356,-104 505.2356,-104 505.2356,-104 505.2356,-151.9891 505.2356,-151.9891"/><polygon fill="#000" stroke="#000" points="501.736 -151.989 505.236 -161.989 508.736 -151.989 501.736 -151.989"/></g><g id="node12" class="node"><title>GooglePlaceService</title><ellipse cx="113" cy="-104" fill="#fdb462" stroke="#000" rx="89.163" ry="18"/><text x="113" y="-99.8" fill="#000" font-family="Times,serif" font-size="14" text-anchor="middle">GooglePlaceService</text></g><g id="edge11" class="edge"><title>GooglePlaceService-&gt;GooglePlaceModule</title><path fill="none" stroke="#000" d="M113,-122.0109C113,-144.4852 113,-180 113,-180 113,-180 369.4075,-180 369.4075,-180"/><polygon fill="#000" stroke="#000" points="369.408 -183.5 379.408 -180 369.407 -176.5 369.408 -183.5"/></g></g></svg>