<svg xmlns="http://www.w3.org/2000/svg" xmlns:xlink="http://www.w3.org/1999/xlink" width="658pt" height="284pt" viewBox="0 0 658 284"><g id="graph0" class="graph" transform="scale(1 1) rotate(0) translate(4 280)"><title>dependencies</title><polygon fill="#fff" stroke="transparent" points="-4 4 -4 -280 654 -280 654 4 -4 4"/><text x="304.009" y="-42.4" fill="#000" font-family="sans-serif" font-size="14" font-weight="bold" text-anchor="start">Legend</text><polygon fill="#ffffb3" stroke="transparent" points="91 -10 91 -30 111 -30 111 -10 91 -10"/><text x="114.629" y="-15.4" fill="#000" font-family="sans-serif" font-size="14" text-anchor="start">Declarations</text><polygon fill="#8dd3c7" stroke="transparent" points="204 -10 204 -30 224 -30 224 -10 204 -10"/><text x="227.725" y="-15.4" fill="#000" font-family="sans-serif" font-size="14" text-anchor="start">Module</text><polygon fill="#80b1d3" stroke="transparent" points="290 -10 290 -30 310 -30 310 -10 290 -10"/><text x="313.781" y="-15.4" fill="#000" font-family="sans-serif" font-size="14" text-anchor="start">Bootstrap</text><polygon fill="#fdb462" stroke="transparent" points="387 -10 387 -30 407 -30 407 -10 387 -10"/><text x="410.673" y="-15.4" fill="#000" font-family="sans-serif" font-size="14" text-anchor="start">Providers</text><polygon fill="#fb8072" stroke="transparent" points="483 -10 483 -30 503 -30 503 -10 483 -10"/><text x="506.726" y="-15.4" fill="#000" font-family="sans-serif" font-size="14" text-anchor="start">Exports</text><g id="clust1" class="cluster"><title>cluster_AppModule</title><polygon fill="none" stroke="#000" stroke-dasharray="1 5" points="8 -70 8 -268 642 -268 642 -70 8 -70"/></g><g id="clust2" class="cluster"><title>cluster_AppModule_declarations</title><polygon fill="none" stroke="#000" points="512 -78 512 -130 634 -130 634 -78 512 -78"/></g><g id="clust4" class="cluster"><title>cluster_AppModule_imports</title><polygon fill="none" stroke="#000" points="16 -78 16 -130 504 -130 504 -78 16 -78"/></g><g id="clust6" class="cluster"><title>cluster_AppModule_bootstrap</title><polygon fill="none" stroke="#000" points="262 -208 262 -260 386 -260 386 -208 262 -208"/></g><g id="node1" class="node"><title>AppComponent</title><polygon fill="#ffffb3" stroke="#000" points="625.94 -122 520.06 -122 520.06 -86 625.94 -86 625.94 -122"/><text x="573" y="-99.8" fill="#000" font-family="Times,serif" font-size="14" text-anchor="middle">AppComponent</text></g><g id="node2" class="node"><title>AppModule</title><polygon fill="#8dd3c7" stroke="#000" points="365.657 -187 362.657 -191 341.657 -191 338.657 -187 282.343 -187 282.343 -151 365.657 -151 365.657 -187"/><text x="324" y="-164.8" fill="#000" font-family="Times,serif" font-size="14" text-anchor="middle">AppModule</text></g><g id="edge1" class="edge"><title>AppComponent-&gt;AppModule</title><path fill="none" stroke="#000" d="M573,-122.2843C573,-143.3211 573,-175 573,-175 573,-175 375.677,-175 375.677,-175"/><polygon fill="#000" stroke="#000" points="375.677 -171.5 365.677 -175 375.677 -178.5 375.677 -171.5"/></g><g id="node7" class="node"><title>AppComponent</title><polygon fill="#80b1d3" stroke="#000" points="378.439 -252 269.561 -252 269.561 -216 378.439 -216 378.439 -252"/><text x="324" y="-229.8" fill="#000" font-family="Times,serif" font-size="14" text-anchor="middle">AppComponent</text></g><g id="edge6" class="edge"><title>AppModule-&gt;AppComponent</title><path fill="none" stroke="#000" stroke-dasharray="1 5" d="M324,-187.1061C324,-187.1061 324,-205.991 324,-205.991"/><polygon fill="#000" stroke="#000" points="320.5 -205.991 324 -215.991 327.5 -205.991 320.5 -205.991"/></g><g id="node3" class="node"><title>BrowserModule</title><polygon fill="#8dd3c7" stroke="#000" points="496.473 -122 493.473 -126 472.473 -126 469.473 -122 389.527 -122 389.527 -86 496.473 -86 496.473 -122"/><text x="443" y="-99.8" fill="#000" font-family="Times,serif" font-size="14" text-anchor="middle">BrowserModule</text></g><g id="edge2" class="edge"><title>BrowserModule-&gt;AppModule</title><path fill="none" stroke="#000" d="M443,-122.0225C443,-139.3734 443,-163 443,-163 443,-163 375.9549,-163 375.9549,-163"/><polygon fill="#000" stroke="#000" points="375.955 -159.5 365.955 -163 375.955 -166.5 375.955 -159.5"/></g><g id="node4" class="node"><title>FormsModule</title><polygon fill="#8dd3c7" stroke="#000" points="371.829 -122 368.829 -126 347.829 -126 344.829 -122 276.171 -122 276.171 -86 371.829 -86 371.829 -122"/><text x="324" y="-99.8" fill="#000" font-family="Times,serif" font-size="14" text-anchor="middle">FormsModule</text></g><g id="edge3" class="edge"><title>FormsModule-&gt;AppModule</title><path fill="none" stroke="#000" d="M324,-122.1061C324,-122.1061 324,-140.991 324,-140.991"/><polygon fill="#000" stroke="#000" points="320.5 -140.991 324 -150.991 327.5 -140.991 320.5 -140.991"/></g><g id="node5" class="node"><title>HttpModule</title><polygon fill="#8dd3c7" stroke="#000" points="258.439 -122 255.439 -126 234.439 -126 231.439 -122 173.561 -122 173.561 -86 258.439 -86 258.439 -122"/><text x="216" y="-99.8" fill="#000" font-family="Times,serif" font-size="14" text-anchor="middle">HttpModule</text></g><g id="edge4" class="edge"><title>HttpModule-&gt;AppModule</title><path fill="none" stroke="#000" d="M216,-122.0225C216,-139.3734 216,-163 216,-163 216,-163 272.2444,-163 272.2444,-163"/><polygon fill="#000" stroke="#000" points="272.244 -166.5 282.244 -163 272.244 -159.5 272.244 -166.5"/></g><g id="node6" class="node"><title>GooglePlaceModule</title><polygon fill="#8dd3c7" stroke="#000" points="155.579 -122 152.579 -126 131.579 -126 128.579 -122 24.421 -122 24.421 -86 155.579 -86 155.579 -122"/><text x="90" y="-99.8" fill="#000" font-family="Times,serif" font-size="14" text-anchor="middle">GooglePlaceModule</text></g><g id="edge5" class="edge"><title>GooglePlaceModule-&gt;AppModule</title><path fill="none" stroke="#000" d="M90,-122.2843C90,-143.3211 90,-175 90,-175 90,-175 272.1655,-175 272.1655,-175"/><polygon fill="#000" stroke="#000" points="272.166 -178.5 282.166 -175 272.166 -171.5 272.166 -178.5"/></g></g></svg>